<svg width="1418" height="1363" viewBox="0 0 1418 1363" fill="none" xmlns="http://www.w3.org/2000/svg">
<path d="M194.082 106.992C-186.744 125.632 -232.875 -201.236 -208.337 -367L-525.856 1207.88C-553.011 1352.77 -416.025 1525.91 349.161 1059.35C1305.64 476.138 670.114 83.6931 194.082 106.992Z" fill="#F5F5F5"/>
<path d="M212.417 126.631L241.895 158.349L199.688 168.019L212.417 126.631Z" fill="#FFCF73" fill-opacity="0.35"/>
<path d="M1391.33 318.036L1396.01 367.839L1350.54 346.992L1391.33 318.036Z" fill="#FFCF73" fill-opacity="0.35"/>
<path d="M807.883 917.79L809.386 992.893L743.593 956.643L807.883 917.79Z" fill="#FFCF73" fill-opacity="0.35"/>
<path d="M1401.53 965.142L1352.91 989.377L1356.23 935.153L1401.53 965.142Z" fill="#FFCF73" fill-opacity="0.35"/>
<path d="M101.852 854.674L142.184 900.184L82.6052 912.358L101.852 854.674Z" fill="#FFCF73" fill-opacity="0.35"/>
</svg>
