<svg width="110" height="48" viewBox="0 0 110 48" fill="none" xmlns="http://www.w3.org/2000/svg">
<path d="M63.8025 0H0V31.6675H63.8025V0Z" fill="#E060FD"/>
<path opacity="0.8" fill-rule="evenodd" clip-rule="evenodd" d="M55.1873 31.5429L59.3076 26.8052L74.1657 38.774L104.756 0.872742L109.75 4.86235L75.2894 47.8753L55.1873 31.5429Z" fill="#2E2E2E"/>
<path fill-rule="evenodd" clip-rule="evenodd" d="M75.8205 20.1307L77.4487 25.1632H81.8425L75.4845 7.35584H70.4699L64.0349 25.1632H68.3511L70.0052 20.1307H75.8205ZM72.9257 10.8657L74.8125 16.9558H71.0132L72.9257 10.8657ZM95.7215 6.19449H91.6636V13.2137L90.7594 11.7693C90.0615 11.3306 88.6917 11.0462 87.5545 11.0462C84.0136 11.0462 80.9897 13.627 80.9897 18.5563C80.9897 22.6339 83.29 25.5245 87.0893 25.5245C88.4849 25.5245 89.8548 25.2147 90.6301 24.6211L91.664 23.0985V25.1631H95.7218V6.19449H95.7215ZM88.3812 22.7373C86.4686 22.7373 85.1505 21.034 85.1505 18.3238C85.1505 15.3301 86.5461 13.8332 88.5104 13.8332C90.0353 13.8332 91.6636 14.8655 91.6636 17.8076V18.4528C91.6636 21.6017 90.2162 22.7373 88.3812 22.7373Z" fill="black"/>
<path fill-rule="evenodd" clip-rule="evenodd" d="M10.5531 6.99426C5.64247 6.99426 1.81732 10.3751 1.81732 16.3625C1.81732 22.1951 5.43571 25.5244 10.3202 25.5244C14.8431 25.5244 17.9188 23.1757 18.3323 19.1497L18.3581 18.8917H14.3003L14.2486 19.1497C13.835 21.266 12.5686 22.5306 10.4751 22.5306C8.04562 22.5306 6.08135 20.595 6.08135 16.1302C6.08135 12.1816 7.91677 9.98797 10.5013 9.98797C12.6465 9.98797 13.913 11.0976 14.3265 13.1623L14.3782 13.4204H18.4361L18.4102 13.1623C18.0484 9.65271 15.4897 6.99426 10.5531 6.99426ZM27.2492 11.0462C26.3044 11.0701 25.4057 11.459 24.7421 12.1309L23.7083 14.0407V11.4078H19.6504V25.1632H23.7083V19.4081C23.7083 15.5111 25.0781 14.2207 28.283 14.4272V11.1496C27.9424 11.083 27.5963 11.0484 27.2492 11.0462V11.0462ZM41.7228 18.0405C41.7228 14.3758 39.4484 11.0462 35.0547 11.0462C30.6868 11.0462 27.9213 14.1948 27.9213 18.324C27.9213 23.1759 30.9452 25.5245 34.7962 25.5245C38.1562 25.5245 40.7407 23.8469 41.4902 20.6725H37.4842C37.2516 21.9629 36.2953 22.7371 34.8738 22.7371C33.3489 22.7371 32.2117 21.9629 31.979 19.3305H41.6453C41.6931 18.9021 41.719 18.4715 41.7228 18.0405ZM34.8738 13.8338C36.3728 13.8338 37.2774 14.8403 37.51 16.7762H32.0824C32.4184 14.7366 33.4264 13.8336 34.8738 13.8336V13.8338ZM50.9239 25.1632H54.8783C54.7065 24.0098 54.6201 22.8453 54.6198 21.6791V17.4983C54.6198 16.6982 54.594 15.924 54.5423 15.2791C54.3355 12.8271 52.8623 11.0462 48.7787 11.0462C45.4186 11.0462 42.7565 12.8269 42.679 15.9755H46.556C46.6594 14.6077 47.3572 13.8335 48.6236 13.8335C49.8384 13.8335 50.459 14.5045 50.5362 15.3303C50.5771 15.7246 50.5943 16.1211 50.5879 16.5175V16.7497H49.7091C44.85 16.7497 42.1879 18.5047 42.1879 21.4984C42.1879 24.105 44.2814 25.5245 46.6079 25.5245C47.8744 25.5245 49.0374 25.2405 50.0195 24.6211L50.6398 23.1499L50.9239 25.1632ZM48.2101 22.7373C47.0989 22.7373 46.3497 22.1953 46.3497 21.163C46.3497 19.5629 48.0814 18.9438 50.5884 19.15V20.1565C50.5879 21.8598 49.4248 22.7373 48.2101 22.7373V22.7373ZM61.4688 14.0917H64.3893V11.5109H61.4688V8.05263H57.4109V11.5109H55.3175V14.0917H57.411V20.4146C57.411 21.1888 57.411 21.8082 57.4627 22.505C57.6178 24.518 58.5999 25.4988 61.6239 25.4988C62.4637 25.4963 63.302 25.4272 64.1309 25.2922V22.7115C62.0632 22.8405 61.598 22.5308 61.4946 21.163C61.4688 20.8014 61.4688 20.3371 61.4688 19.8726V14.0917V14.0917Z" fill="white"/>
</svg>
